<?xml version="1.0" encoding="utf-8"?>
<!-- Generator: Adobe Illustrator 22.0.1, SVG Export Plug-In . SVG Version: 6.00 Build 0)  -->
<svg version="1.1" id="Layer_1" xmlns="http://www.w3.org/2000/svg" xmlns:xlink="http://www.w3.org/1999/xlink" x="0px" y="0px"
	 viewBox="0 0 200 33" style="enable-background:new 0 0 200 33;" xml:space="preserve">
<style type="text/css">
	.st0{fill:url(#Shape_10_);}
	.st1{fill:#696C74;}
</style>
<title>MB_LOGO_Lockups_2016_MB logo-B2C-Radiance-Horizontal</title>
<desc>Created with Sketch.</desc>
<g id="Navigation" transform="translate(-177.000000, -241.000000)">
	<g id="MB_LOGO_Lockups_2016_MB-logo-B2C-Radiance-Horizontal" transform="translate(177.000000, 241.000000)">
		
			<linearGradient id="Shape_10_" gradientUnits="userSpaceOnUse" x1="-285.8883" y1="313.7777" x2="-284.9376" y2="313.4319" gradientTransform="matrix(32.49 0 0 -32.49 9289.5498 10205.2705)">
			<stop  offset="0" style="stop-color:#B52A72"/>
			<stop  offset="0.31" style="stop-color:#CE3C4B"/>
			<stop  offset="0.68" style="stop-color:#E55A26"/>
			<stop  offset="1" style="stop-color:#F5891F"/>
		</linearGradient>
		<path id="Shape" class="st0" d="M31.7,21c0,0.4-0.1,0.8-0.2,1.2c-0.3,1-0.7,2-1.1,3v0.2c0-0.3,0.1-0.5,0.2-0.6
			c0.3-0.6,0.5-1.2,0.7-1.9C31.4,22.2,31.5,21.6,31.7,21z M30.2,17.7c0,0.2,0,0.4,0,0.5v-0.1C30.3,18,30.3,17.8,30.2,17.7L30.2,17.7
			z M16.2,5.2c0.6,0,1.3,0.1,1.9,0.2c1.7,0.3,3.3,0.8,4.8,1.7c-1-0.7-2.1-1.3-3.3-1.6C18.5,5.1,17.3,5,16.2,5.2L16.2,5.2z M13,5.6
			c1-0.2,2.1-0.4,3.1-0.5c-1,0-1.9,0.1-2.9,0.3L13,5.6z M20.2,5.4C19.3,5.1,18.3,5,17.4,5c1.8,0.2,3.5,0.7,5.1,1.6
			C21.7,6.1,21,5.7,20.2,5.4z M23.9,30.9c-0.4,0.2-0.7,0.4-1.1,0.6c0.4-0.2,0.7-0.4,1-0.6H23.9z M17.8,0.3c0.9-0.1,1.7-0.1,2.6,0
			c-0.7-0.1-1.4-0.2-2.1-0.2c-1.2-0.1-2.5-0.1-3.8,0c1.1,0,2.1,0.1,3.1,0.3L17.8,0.3z M31.4,10.4C31.3,10,31.1,9.7,31,9.3
			c-1.3-2.5-3.2-4.6-5.6-5.9l0.5,0.3c0.5,0.4,1.1,0.8,1.6,1.3c-0.5-0.4-1-0.8-1.6-1.2L26.1,4c0.8,0.7,1.5,1.4,2.2,2.2l-0.6-0.8
			l0.5,0.7c1.3,1.4,2.3,3,3.1,4.7c0.6,1.4,0.8,1.7,0.8,1.5c0-0.5-0.1-1.1-0.3-1.6c-0.3-0.6-0.6-1.3-0.9-1.9
			C31.1,9.4,31.3,9.9,31.4,10.4z M18.7,0.7c1.8,0.1,3.6,0.6,5.3,1.4c-2-1-4.1-1.5-6.3-1.6C18.1,0.6,18.4,0.6,18.7,0.7L18.7,0.7z
			 M17.4,0.4h0.2h-0.5H17.4z M20.8,28.8c1.5-0.6,2.8-1.5,3.9-2.7c-0.6,0.6-1.3,1.2-2,1.7c0,0,0,0-0.2,0h0.2l0,0
			c-0.5,0.4-1.1,0.7-1.7,1L20.8,28.8z M27,11.5c-0.8-1.4-1.8-2.6-3.1-3.6c-0.4-0.3-0.8-0.5-1.1-0.8c1.5,1,2.8,2.4,3.8,4
			c1.6,2.6,2.1,5.7,1.6,8.8c0,0.3-0.1,0.7-0.2,1c0.1-0.4,0.2-0.8,0.3-1.2c0.2-1.5,0.2-3.1,0-4.6c0-0.4-0.1-0.8-0.2-1.3
			c-0.1-0.4-0.3-0.8-0.4-1.2c-1-2.4-2.7-4.5-5-5.8l-0.2-0.1C24.4,7.8,25.9,9.4,27,11.5L27,11.5z M27.9,11.5
			c-0.1-0.2-0.3-0.5-0.4-0.7c0,0.2,0.2,0.3,0.2,0.5c0.1,0.2,0.4,0.8,0.5,1.1C28.1,12,28,11.7,27.9,11.5L27.9,11.5z M28.7,14.7
			c-0.1-0.7-0.2-1.4-0.4-2.1c-0.1-0.3-0.2-0.5-0.3-0.8c0.3,0.9,0.6,1.8,0.7,2.7L28.7,14.7z M23.2,26.5c-0.2,0.1-0.5,0.3-0.7,0.4
			c1.9-0.8,3.5-2.1,4.7-3.8c-0.8,1.5-1.8,2.8-3.1,3.9c-0.4,0.4-0.8,0.7-1.1,0.9l-0.5,0.6c0.6-0.4,1.2-0.8,1.7-1.3l0,0
			c0.7-0.6,1.3-1.2,1.9-1.9c-1,1.4-2.3,2.5-3.8,3.4l-0.2,0.2c1.6-0.8,3-2,4.1-3.4l0.2-0.2c0.8-1.4,1.3-2.9,1.6-4.4
			C27.1,23.3,25.4,25.3,23.2,26.5L23.2,26.5z M28.6,14.5c0,0.4,0.1,0.7,0.1,1.1c0-0.3,0-0.6,0-0.9L28.6,14.5z M20.7,29h-0.2
			C20.7,29,20.8,29,20.7,29z M10.5,2.2c0.6-0.2,1.1-0.4,1.7-0.5l-0.9,0.2L10.5,2.2z M17.4,5c-1-0.1-2,0-3,0.2
			C15.4,5.1,16.4,5,17.4,5z M32.2,20.7c-0.3,1.4-0.8,2.7-1.4,3.9c0.8-1.8,1.3-3.8,1.5-5.8c0.2-1.8,0.1-3.6-0.4-5.3
			c-0.1-0.4-0.2-0.7-0.3-1c0.7,2,0.9,4.2,0.8,6.4c-0.1,1.2-0.4,2.4-0.8,3.5c0.3-0.9,0.4-1.8,0.5-2.7c0.1-0.6,0.2-1.2,0.2-1.9
			c0,0.2,0,0.3,0,0.5c0,0.4,0,0.9-0.1,1.3c0,0.5-0.2,1-0.3,1.5v-0.2c0-0.1,0-0.3,0-0.4c-0.6,2.8-1.9,5.4-3.8,7.5
			c0.8-0.9,1.5-1.9,2.1-2.9c-0.8,1.5-1.9,2.8-3.3,3.9c0.5-0.5,0.9-1,1.3-1.5c1.8-2.1,3-4.6,3.7-7.2c0-0.4-0.2-0.8-0.3-0.4
			c-0.3,1.7-0.9,3.4-1.7,5c-0.4,0.8-0.9,1.6-1.5,2.3c-0.1,0,0.7-1.1,1.3-2.3c0.4-0.8,0.7-1.6,1-2.4l-0.4,0.9l0.2-0.9
			c0.2-0.6,0.4-1.2,0.5-1.9c0.2-1.1,0.2-2.3,0.2-3.5c0,0.4,0,0.8,0,1.3c0,0,0,0,0,0.1c-0.1,2.2-0.7,4.3-1.7,6.3
			c-2,3.5-5.3,6.1-9.2,7.1c-0.2,0-0.3,0-0.2,0c3.5-1,6.5-3.3,8.5-6.4c0.3-0.6,0.6-1.2,0.9-1.9c0.3-0.8,0.6-1.7,0.8-2.5
			c0,0.1,0,0.2-0.1,0.4l-0.1,0.4c-0.2,0.6-0.4,1.2-0.6,1.8c-1.7,3.9-5,6.8-9.1,8c0,0,0.2,0,0.3-0.1c1.8-0.6,3.5-1.5,4.8-2.9
			c-0.8,0.7-1.6,1.2-2.5,1.7l0,0c-0.7,0.4-1.4,0.8-2.1,1c0.2-0.2,0.4-0.2,0.6-0.3l1.5-0.9h0.2c-1,0.5-2,0.8-3.1,1l0.3-0.3
			c0.7-0.2,1.4-0.4,2-0.8l0,0H22c0.2,0,0.2,0,0.2,0c0.6-0.2,1.2-0.5,1.7-0.8c1.7-1.2,3.2-2.7,4.2-4.5c1.2-1.9,1.9-4.1,2.1-6.3
			c0,0.9-0.2,1.7-0.3,2.5c0.2-0.9,0.3-1.8,0.3-2.7c0-0.4,0-0.7,0-1.1c0-0.2-0.1-0.4-0.2-0.6c0.1,2.6-0.6,5.2-1.9,7.5l0.2-0.3
			c0,0,0.5-1.1,0.8-2.3c0.2-0.8,0.4-1.6,0.5-2.3l-0.2,0.8c0,0,0-0.2,0-0.2c-0.1,0.4-0.2,0.9-0.4,1.3v0.4c-0.4,1.3-1.1,2.5-1.9,3.6
			c-0.3,0.5-0.6,0.9-0.9,1.3c0.2-0.2,0.3-0.5,0.5-0.7c-1.2,1.6-2.7,2.9-4.5,3.8c0,0-0.1,0-0.1-0.1c0,0,0-0.1,0-0.1
			c1.5-0.8,2.8-1.9,4-3.2l-0.2,0.4l0.4-0.5c0.8-0.9,1.4-2,1.9-3.1c0-0.3,0.2-0.5,0.2-0.8c-0.4,1.1-1,2.1-1.7,3.1
			c1.6-2.4,2.5-5.2,2.7-8.1c0-0.7,0-1.4-0.1-2.1c0-0.2,0-0.5-0.1-0.7l-0.1-0.4v0.5c-0.4-2-1.3-3.8-2.5-5.4l-0.2-0.2
			c0.6,0.8,1,1.7,1.4,2.7l-0.4-0.6v-0.1c-0.2-0.4-0.5-0.9-0.8-1.3c0.2,0.3,0.4,0.7,0.5,1c0-0.1-0.2-0.3-0.2-0.2
			c-0.4-0.8-1-1.4-1.7-2L25.1,8c-1-1-2.2-1.8-3.6-2.3c-0.5-0.2-1-0.4-1.4-0.6c0.3,0.1,0.8,0.3,1.1,0.5l0.3,0.1
			c1.2,0.5,2.3,1.2,3.3,2.1L25.1,8l0.2,0.2c0.4,0.3,0.7,0.7,1,1.1v0.2c0.3,0.4,0.6,0.9,0.9,1.3c0.2,0.6,0.4,1.1,0.5,1.7
			c-0.9-2.3-2.5-4.3-4.6-5.6c-1.4-0.9-3-1.6-4.7-1.9c-1.7-0.3-3.4-0.2-5,0.3l0.8-0.1c-0.4,0.1-0.7,0.2-1,0.3c-3,0.8-5.7,2.7-7.3,5.3
			c-0.3,0.8-0.6,1.7-0.8,2.6c0.4-1.3,1.1-2.5,1.9-3.6c-0.2,0.3-0.4,0.6-0.5,0.8c-0.2,0.4-0.4,0.9-0.6,1.3c0.9-2,2.5-3.7,4.4-4.9
			c-0.3,0.2-0.5,0.3-0.8,0.5C6.7,9.9,5.1,13.4,5.3,17c0.1,0.7,0.3,1.4,0.5,2.1c0.6,1.8,1.5,3.4,2.8,4.7c-0.3-0.3-0.7-0.7-1-1.1
			c-1-1.2-1.8-2.7-2.2-4.2c0.6,2.2,1.8,4.2,3.5,5.8c0,0-0.5-0.3-0.6-0.3c-0.9-0.8-1.8-1.8-2.4-2.9c0.4,0.9,0.9,1.7,1.5,2.4
			c-0.3-0.3-0.5-0.7-0.8-1c-0.7-1-1.2-2.1-1.5-3.3v-0.2c0.4,1.9,1.3,3.7,2.6,5.1L7.5,24c-1.7-1.8-2.8-4.1-3-6.6
			c-0.2-1.9,0.2-3.9,0.9-5.6c-0.4,0.7-0.7,1.5-0.9,2.3c-0.1,0.6-0.2,1.2-0.2,1.7c-0.1,0.6-0.1,1.3,0,1.9c0.2,2.6,1.3,5.1,3.1,7
			c0.9,0.9,1.8,1.7,2.9,2.3c0.2,0.1,0.4,0.3,0.6,0.5l0.5,0.3c0.1,0,0.1-0.1,0.2-0.2h0.5c-0.2-0.4-1.4-0.8-1.4-1
			c0.6,0.2,1.2,0.4,1.8,0.8c0.3,0.2,0.7,0.2,1.1,0.3c0,0,0-0.2,0-0.2c0-0.1,0.4,0.2,0.6,0.2c0.7,0.1,1.4,0.4,2,0.7
			c0.5,0.3,1,0.7,1.3,1.2c0.2,0.2,0.2,0.5,0.2,0.7c0,0.3,0,0.6,0,0.9c0,0.1-0.1,0.2-0.1,0.3c0,0.2-0.1,0.4-0.3,0.5l-0.3,0.2
			c0.1,0,0,0.2-0.4,0.2c-0.1,0.1-0.3,0.1-0.4,0.1c-0.3,0-1.4,0-1.7,0s-0.7-0.2-1.1-0.2c-0.4-0.1-0.8-0.1-1.2-0.3
			c-0.5-0.1-0.9-0.3-1.4-0.5c-0.2-0.1-0.4-0.2-0.6-0.4l-4.4-1.9c-3.8-3.1-6-7.7-5.9-12.6c0-4.1,1.4-8.1,4-11.3
			C3.3,6.5,2.6,7.7,2.1,8.9L2.1,9.2C3.2,6.7,4.9,4.6,7,3C5.5,4.1,4.3,5.5,3.3,7.1C3,7.6,2.8,8.1,2.6,8.6c1-1.8,2.4-3.4,4.1-4.7
			l0.6-0.4C5,5.2,3.2,7.6,2.4,10.4l-0.1,0.3c0.9-2.5,2.5-4.7,4.6-6.5C5.4,5.4,4.2,6.9,3.4,8.6C3.2,9,2.9,9.5,2.8,10
			c0.9-2,2.1-3.8,3.8-5.2c1-1,2.2-1.8,3.5-2.4L11.3,2c1.5-0.5,3-0.8,4.5-0.8c-1.2,0-2.4,0.1-3.5,0.4L13,1.4h-0.6
			c1.2-0.4,2.5-0.6,3.8-0.6c0.4,0,0.8,0,1.2,0c-3.4-0.4-6.8,0.4-9.6,2.3L7.5,3.3L6.8,3.8c2.3-2,5.2-3.2,8.3-3.5c0.6,0,1.3,0,1.9,0
			h-0.4h-0.3h1.1l1.2,0.2c-0.5,0-1,0-1.5,0c1.3,0,2.7,0.2,4,0.7c-1.6-0.3-3.2-0.4-4.9-0.3h-0.4h-0.3h0.9h0.9c1,0.2,2,0.5,3,0.8
			c-0.7-0.2-1.4-0.3-2.1-0.4c1.8,0.2,3.6,0.7,5.3,1.5c-1.4-0.7-2.9-1.1-4.4-1.3h-0.2l-1.1-0.1h0.6h-0.8c-0.5-0.1-1.1-0.1-1.6-0.1
			c-1.3,0.1-2.5,0.3-3.8,0.6c0.8-0.2,1.5-0.3,2.3-0.4c0.7-0.1,1.4-0.1,2-0.1h-0.1c0.7,0,1.4,0.1,2.2,0.2c-0.9-0.1-1.7-0.1-2.6,0
			c0.2,0,0.2-0.1,0-0.2c-1.8,0.1-3.6,0.5-5.3,1.1l-0.3,0.1c1.6-0.6,3.2-0.9,4.9-0.9h0.5c2.5-0.1,5,0.5,7.2,1.6
			c-1.7-0.8-3.5-1.3-5.4-1.4c-0.5,0-1.1,0-1.6,0c2.1,0,4.2,0.6,6.1,1.5c2.5,1,4.7,2.7,6.4,4.8l-0.2-0.2c0.5,0.6,0.9,1.2,1.2,1.9
			l0.2,0.5c0.2,0.4,0.3,0.8,0.5,1.1c0-0.2-0.2-0.5-0.2-0.7c0.7,1.7,1.2,3.6,1.4,5.4h0.2v-0.2c0-0.7-0.1-1.3-0.2-2v0.1V14
			c-0.1-0.5-0.2-0.9-0.3-1.3l-0.2-0.5v0.2c0.2,0.5,0.3,1.1,0.5,1.6c-0.1-0.3-0.2-0.6-0.3-0.9c0,0.2,0,0.4,0.1,0.6
			c0-0.2-0.2-0.5-0.2-0.7s-0.2-0.9-0.4-1.3c-0.3-0.8-0.7-1.6-1.1-2.3c0.3,0.5,0.6,1,0.8,1.5c-0.1-0.3-0.2-0.6-0.4-0.9
			c-0.1-0.3-0.5-0.8-0.8-1.1c-0.6-1.1-1.3-2.2-2.1-3.1c1.4,1.2,2.5,2.6,3.3,4.3c0.2,0.4,0.4,0.8,0.5,1.1c-0.5-1.7-1.3-3.3-2.4-4.8
			c0.8,0.9,1.5,1.9,2,2.9C30,8.8,29.8,8.4,29.5,8l0.4,0.6C32.2,12.2,33,16.5,32.2,20.7L32.2,20.7z M0.5,17.9c0-0.1,0-0.2,0-0.2
			C0.5,17.7,0.5,17.8,0.5,17.9z M1.6,11.3c-0.4,1-0.7,2-0.9,3c-0.2,0.8-0.2,1.5-0.2,2.3c0,0.1,0,0.2,0,0.2c0,0,0-0.1,0-0.2v0.1
			c0-1.1,0.2-2.2,0.4-3.2c0-0.1,0-0.3,0-0.4C1.1,12.5,1.3,11.9,1.6,11.3z M7.6,26.3c0.7,0.7,1.5,1.3,2.4,1.7h0.1
			C9.2,27.5,8.4,26.9,7.6,26.3L7.6,26.3z M7,27.8c0.3,0.2,0.6,0.3,0.9,0.5L7.5,28L7,27.8z M5.2,14.9c0-0.4,0.1-0.8,0.2-1.2
			c0,0.3-0.1,0.6-0.2,0.8L5.2,14.9z M5.2,6.2c0.5-0.5,1-0.9,1.6-1.4L7,4.6C8.2,3.7,9.6,3,11,2.6c0.6-0.2,1.1-0.3,1.7-0.4
			C10.8,2.5,9,3.2,7.4,4.3l0.2-0.2L7,4.4L6.5,4.8L6.1,5.2C5.8,5.5,5.5,5.8,5.2,6.2L5.2,6.2z M11.4,5.1c-1.5,0.7-2.8,1.6-4,2.7
			C7,8.2,6.6,8.6,6.3,9.1c-0.4,0.5-0.8,1.1-1.1,1.7l0.3-0.4c-0.5,0.9-0.9,1.8-1.2,2.7c0,0.1,0,0.2,0,0.3c-0.4,1.5-0.6,3-0.4,4.6
			c0,0.2,0.1,0.5,0.2,0.8c0.1,0.3,0.2,0.8,0.3,1.1c0-0.3-0.2-0.6-0.2-0.9C4,18.1,3.9,17,4,16c0.1-2.4,1-4.7,2.4-6.6
			C6.6,9,6.9,8.6,7.3,8.2c1-1.1,2.2-2,3.5-2.7C11,5.4,11.3,5.2,11.4,5.1L11.4,5.1z M17,1.9C14,1.6,10.9,2.3,8.4,4
			c-2.3,1.5-4.1,3.8-4.9,6.5v0.3c0.8-2.3,2.2-4.3,4.1-5.8C6.3,6,5.2,7.3,4.5,8.8c-0.2,0.4-0.4,0.9-0.6,1.3C6,5.3,10.7,2.1,16,1.9
			C16.3,2,16.7,2,17,1.9L17,1.9z M25.8,7.5c0.5,0.5,0.9,0.9,1.3,1.4s0.7,0.9,1,1.3c-0.5-0.8-1.1-1.6-1.8-2.3
			c0.7,0.7,1.3,1.5,1.9,2.3v-0.1c-1.5-2.2-3.5-4-5.8-5.3c1.5,0.8,2.8,1.9,3.9,3.1c-0.6-0.7-1.3-1.3-2-1.9c-0.4-0.3-0.7-0.5-1.1-0.7
			c0.9,0.7,1.8,1.4,2.6,2.2c-1-1-2.2-1.8-3.4-2.5c1.7,1,3.2,2.3,4.4,3.8c0.4,0.4,0.7,0.9,1,1.4l-0.1-0.2c-0.6-0.9-1.2-1.7-1.9-2.4
			L25.8,7.5z M28.7,12.2c0-0.2-0.1-0.4-0.2-0.7c-0.2-0.5-0.5-1-0.8-1.5c0.1,0.2,0.2,0.3,0.3,0.5l0.2,0.5
			C28.4,11.6,28.5,11.9,28.7,12.2L28.7,12.2z M29.7,21.3c0-0.1,0-0.1,0-0.2c-0.3,1.1-0.6,2.1-1.1,3.1c0.5-0.9,0.9-1.8,1.2-2.8
			L29.7,21.3z M29.9,21.4c-0.1,0.3-0.2,0.6-0.3,0.9c0.1-0.2,0.2-0.4,0.3-0.7C29.8,21.6,29.9,21.6,29.9,21.4L29.9,21.4z M29.8,12.5
			c-0.1-0.4-0.3-0.7-0.5-1.1c0.2,0.5,0.4,0.9,0.5,1.2L29.8,12.5z M30.4,18.1c0,0.1,0,0.2,0,0.4c0,0.5,0,0.9-0.2,1.4
			c0-0.2,0-0.3,0.1-0.5S30.5,18.6,30.4,18.1L30.4,18.1z M31.1,16.7c0-0.3-0.1-0.7-0.1-1c-0.2-1.2-0.6-2.3-1.1-3.4c0,0,0-0.1,0-0.1
			c0.1,0.4,0.3,0.8,0.4,1.2c0-0.4-0.2-0.7-0.3-1.1c0.7,1.8,1.1,3.8,1.1,5.7C31.1,17.6,31.1,17.1,31.1,16.7z M31.8,14.2
			c0,0.4,0.1,0.8,0.2,1.3s0.1,1.1,0.1,1.6c0,0,0,0,0,0.1c0-0.5,0-1.1,0-1.6c0-0.5,0-0.6-0.2-0.9L31.8,14.2z"/>
		<path id="Shape_1_" class="st1" d="M116.8,6.1h8.6c3.3,0,6.7,1.5,6.7,5.4c0,2.2-1.6,4.2-3.8,4.7c2.7,0.2,4.8,2.5,4.8,5.2
			c0,4.6-4.2,6.1-8.3,6.1h-7.9V6.1z M120.7,14.8h3.6c2.6,0,3.9-1.1,3.9-2.7s-1.3-2.7-4.2-2.7h-3.2V14.8z M120.7,24.2h3.6
			c2,0,4.8-0.3,4.8-3.1c0-2.2-1.5-3-4.7-3h-3.8L120.7,24.2L120.7,24.2z"/>
		<path id="Shape_2_" class="st1" d="M145.7,6.1c3.1-0.2,6.2,0.9,8.5,3c2.2,2.1,3.4,5.1,3.2,8.1c0.1,3-1.1,5.9-3.3,8.1
			c-2.2,2.1-5.3,3.3-8.4,3.1c-3.1,0.2-6.1-0.9-8.3-3c-2.2-2.1-3.4-5-3.3-8c-0.2-3,1-6,3.2-8.2C139.4,7.1,142.5,6,145.7,6.1z
			 M145.7,25c2.1,0,4.1-0.8,5.6-2.3s2.2-3.5,2-5.5c0-4-3.4-7.3-7.6-7.3s-7.6,3.3-7.6,7.3c-0.2,2.1,0.6,4.1,2,5.6
			C141.6,24.2,143.6,25,145.7,25L145.7,25z"/>
		<path id="Shape_3_" class="st1" d="M159.4,6.1h8.4c5.5,0,10.9,3.4,10.9,10.7s-6.2,10.7-11.3,10.7h-8L159.4,6.1L159.4,6.1z M166,24
			c4.8,0,8.7-2.1,8.7-7.2s-3.4-7.2-8-7.2h-3.5V24H166z"/>
		<polygon id="Shape_4_" class="st1" points="186.9,18.2 178.7,6.1 183.5,6.1 188.9,14.6 194.4,6.1 199,6.1 190.8,18.2 190.8,27.4 
			186.9,27.4 		"/>
		<polygon id="Shape_5_" class="st1" points="39.6,6.1 43.3,6.1 50.8,22.9 50.8,22.9 58.2,6.1 61.9,6.1 61.9,27.4 59.3,27.4 
			59.3,9.5 59.3,9.5 51.5,27.4 50,27.4 42.2,9.5 42.2,9.5 42.2,27.4 39.6,27.4 		"/>
		<polygon id="Shape_6_" class="st1" points="66,6.1 69,6.1 69,27.4 66,27.4 		"/>
		<polygon id="Shape_7_" class="st1" points="72.1,6.1 75.3,6.1 87.8,23.9 87.8,23.9 87.8,6.1 90.4,6.1 90.4,27.4 87.2,27.4 
			74.7,9.7 74.7,9.7 74.7,27.4 72.1,27.4 		"/>
		<path id="Shape_8_" class="st1" d="M94.4,6.1h8.5c2.9-0.1,5.8,1,7.8,3.1s3.1,4.8,3,7.6c0.1,2.8-1,5.5-3,7.6s-4.8,3.1-7.7,3.1h-8.5
			V6.1z M97.1,25.1h4.9c5,0,8.9-2.5,8.9-8.3s-3.8-8.3-8.9-8.3h-4.9V25.1L97.1,25.1z"/>
		<path id="Shape_9_" class="st1" d="M194.2,25.2c0.2-0.4,0.4-0.7,0.7-1c0.3-0.3,0.6-0.5,1-0.6c1.5-0.6,3.3,0.1,4,1.6
			c0.2,0.4,0.3,0.8,0.2,1.2c0,0.4-0.1,0.8-0.2,1.2c-0.2,0.4-0.4,0.7-0.7,1c-0.3,0.3-0.6,0.5-1,0.6c-0.8,0.3-1.6,0.3-2.4,0
			c-0.4-0.1-0.7-0.4-1-0.6c-0.3-0.3-0.5-0.6-0.7-1c-0.2-0.4-0.3-0.8-0.2-1.2C193.9,26,194,25.6,194.2,25.2z M194.7,27.4
			c0.1,0.3,0.3,0.6,0.5,0.8c0.2,0.2,0.5,0.4,0.8,0.6c0.3,0.1,0.7,0.2,1,0.2c0.3,0,0.7-0.1,1-0.2c0.3-0.1,0.6-0.3,0.8-0.6
			c0.2-0.2,0.4-0.5,0.5-0.8c0.1-0.3,0.2-0.7,0.2-1c0-0.3-0.1-0.7-0.2-1c-0.2-0.6-0.7-1.1-1.3-1.4c-0.3-0.1-0.6-0.2-1-0.2
			c-1,0-1.9,0.6-2.3,1.6c-0.1,0.3-0.2,0.7-0.2,1C194.5,26.8,194.5,27.1,194.7,27.4L194.7,27.4z M197.2,24.6c0.3,0,0.7,0.1,0.9,0.3
			c0.2,0.2,0.3,0.5,0.3,0.8c0,0.3-0.1,0.5-0.3,0.7c-0.2,0.2-0.4,0.2-0.7,0.3l1,1.6h-0.6l-1-1.5h-0.6v1.5h-0.6v-3.6L197.2,24.6
			L197.2,24.6z M196.9,26.2h0.4h0.3c0.1,0,0.2-0.1,0.2-0.2c0-0.1,0-0.2,0-0.3c0-0.1,0-0.2,0-0.3c0-0.1-0.1-0.1-0.2-0.2h-0.2h-1v0.9
			L196.9,26.2L196.9,26.2z"/>
	</g>
</g>
</svg>
